<svg xmlns="http://www.w3.org/2000/svg" width="1536px" height="1536px">
	<path fill="#ffffff" d="M1497,69c-27.333-11.333-50.667-6.666-70,14l-130,129c-71.333-67.333-152.833-119.5-244.5-156.5S866,0,768,0C664,0,564.667,20.334,470,61c-94.667,40.667-176.334,95.334-245,164c-68.666,68.667-123.334,150.334-164,245C20.3335,564.667,0,664,0,768s20.3335,203.334,61,298c40.666,94.667,95.334,176.334,164,245c68.666,68.667,150.333,123.334,245,164c94.667,40.667,194,61,298,61c119.333,0,231.5-25.333,336.5-76c105-50.666,193.667-121.666,266-213c72.333-91.333,121.5-195.333,147.5-312c2-9.333-0.333-18.333-7-27c-6-8-14.333-12-25-12h-199c-15.333,0-25.333,7.667-30,23c-33.333,108-95,195.167-185,261.5c-90,66.334-191.333,99.5-304,99.5c-69.333,0-135.5-13.5-198.5-40.5S452,1176,406,1130s-82.5-100.5-109.5-163.5S256,837.334,256,768c0-69.333,13.5-135.5,40.5-198.5S360,452,406,406s100.5-82.5,163.5-109.5S698.667,256,768,256c134,0,250.333,45.667,349,137L979,531c-20.667,20-25.333,43-14,69c11.333,26.667,31,40,59,40h448c17.333,0,32.333-6.333,45-19c12.667-12.666,19-27.666,19-45V128C1536,100,1523,80.334,1497,69z"/>
</svg>